<svg xmlns="http://www.w3.org/2000/svg" version="1.1" xmlns:xlink="http://www.w3.org/1999/xlink" xmlns:svgjs="http://svgjs.dev/svgjs" width="128" height="128"><svg width="128" height="128" viewBox="0 0 128 128" fill="none" xmlns="http://www.w3.org/2000/svg">
<rect width="128" height="128" fill="#1E1E1E"></rect>
<path d="M63.5 87.56C60.82 87.56 58.92 86.8 57.8 85.28C56.72 83.72 56.18 81.38 56.18 78.26C56.18 76.34 56.48 73.48 57.08 69.68C57.68 65.88 58.54 60.9 59.66 54.74C58.74 54.86 57.56 55.04 56.12 55.28C54.72 55.52 53.3 55.78 51.86 56.06C50.42 56.3 49.22 56.54 48.26 56.78C48.02 56.02 47.88 55.28 47.84 54.56C47.8 53.84 47.78 53.28 47.78 52.88C47.78 50.6 48.18 48.74 48.98 47.3C49.82 45.86 50.92 44.8 52.28 44.12C53.64 43.44 55.12 43.1 56.72 43.1C58.76 43.1 60.78 43.3 62.78 43.7C64.78 44.06 66.78 44.44 68.78 44.84C70.82 45.24 72.9 45.48 75.02 45.56C76.5 45.28 78.14 44.92 79.94 44.48C81.78 44.04 83.38 43.62 84.74 43.22C84.98 43.98 85.12 44.72 85.16 45.44C85.2 46.16 85.22 46.72 85.22 47.12C85.22 49.4 84.76 51.26 83.84 52.7C82.96 54.14 81.76 55.2 80.24 55.88C78.76 56.56 77.12 56.9 75.32 56.9C74.8 56.9 74.3 56.9 73.82 56.9C73.34 56.86 72.88 56.82 72.44 56.78C72.08 58.58 71.7 60.46 71.3 62.42C70.94 64.38 70.6 66.28 70.28 68.12C69.96 69.92 69.68 71.54 69.44 72.98C69.24 74.38 69.14 75.44 69.14 76.16C69.14 78.2 69.28 79.92 69.56 81.32C69.88 82.72 70.34 83.9 70.94 84.86C68.54 86.66 66.06 87.56 63.5 87.56Z" fill="white"></path>
</svg><style>@media (prefers-color-scheme: light) { :root { filter: none; } }
@media (prefers-color-scheme: dark) { :root { filter: none; } }
</style></svg>